<?xml version="1.0" standalone="no"?>
<!DOCTYPE svg PUBLIC "-//W3C//DTD SVG 20010904//EN"
 "http://www.w3.org/TR/2001/REC-SVG-20010904/DTD/svg10.dtd">
<svg version="1.0" xmlns="http://www.w3.org/2000/svg"
 width="405.000000pt" height="405.000000pt" viewBox="0 0 405.000000 405.000000"
 preserveAspectRatio="xMidYMid meet">
<metadata>
Created by potrace 1.11, written by Peter Selinger 2001-2013
</metadata>
<g transform="translate(0.000000,405.000000) scale(0.100000,-0.100000)"
fill="#000000" stroke="none">
<path d="M1920 4043 c-522 -50 -930 -469 -932 -958 0 -188 52 -349 190 -584
47 -79 50 -87 50 -157 0 -46 7 -86 17 -108 19 -40 87 -106 110 -106 10 0 14
-7 11 -22 -3 -13 -5 -28 -5 -34 -2 -27 -43 -54 -82 -54 -61 0 -119 59 -175
179 -97 205 -131 254 -213 305 -149 94 -339 43 -411 -111 -54 -116 -13 -260
89 -312 51 -26 128 -39 170 -29 39 11 41 10 47 -34 12 -81 46 -182 86 -258 25
-47 140 -170 160 -170 6 0 19 -6 27 -14 9 -8 32 -18 51 -23 l35 -10 -55 -35
c-86 -55 -189 -104 -289 -137 -190 -63 -289 -131 -334 -230 -29 -64 -29 -180
0 -237 51 -97 137 -148 258 -150 108 -3 165 16 220 71 48 48 69 104 63 167 -3
29 0 38 12 39 8 0 29 3 45 5 17 2 65 9 107 14 43 6 110 22 149 35 40 14 74 23
77 20 2 -2 -28 -55 -69 -117 -143 -221 -184 -330 -177 -464 4 -67 10 -94 37
-149 38 -78 99 -142 170 -181 28 -15 51 -30 51 -35 0 -6 54 -18 150 -34 27 -5
124 -22 295 -55 61 -11 122 -23 137 -25 15 -3 58 -12 95 -21 90 -21 131 -21
233 5 47 11 101 23 120 27 19 3 53 10 75 16 22 5 51 12 65 14 65 11 99 42 92
81 -2 7 21 27 51 46 127 81 197 240 176 396 -14 103 -66 212 -186 394 -36 54
-63 100 -61 103 3 2 25 -3 49 -12 24 -8 52 -17 62 -19 9 -2 20 -6 25 -8 4 -3
27 -8 52 -11 25 -3 54 -8 65 -10 11 -2 47 -7 80 -11 l60 -6 -2 -45 c-2 -71 15
-115 63 -161 55 -53 113 -72 219 -69 91 2 152 25 205 79 56 57 75 103 75 187
0 91 -22 145 -86 210 -51 52 -116 86 -268 140 -119 42 -207 84 -291 138 l-55
36 31 6 c44 10 137 74 185 128 64 73 121 208 143 343 l6 36 69 -5 c59 -4 77
-1 123 21 221 100 149 439 -101 476 -90 13 -188 -20 -256 -87 -54 -54 -87
-106 -128 -201 -66 -152 -120 -223 -182 -240 -57 -15 -95 11 -109 76 -6 26 -4
31 16 36 32 8 86 63 105 106 9 21 15 64 15 105 -1 68 1 73 72 200 130 233 169
361 168 546 -3 447 -345 836 -821 935 -71 15 -248 24 -321 18z"/>
</g>
</svg>
